<?xml version="1.0" encoding="UTF-8"?>
<svg id="Layer_1" data-name="Layer 1" xmlns="http://www.w3.org/2000/svg" viewBox="0 0 721.2 749.38">
  <defs>
    <style>
      .cls-1 {
        fill: #133324;
      }
    </style>
  </defs>
  <path class="cls-1" d="M720.61,248.42c0-.86-.06-1.74-.24-2.57.77-5.95-1.42-12.19-6.39-16.38L448.56,5.24c-1.44-1.24-3.07-2.2-4.71-2.9-6.54-3.67-14.9-3.05-20.89,2.06L156,231.8c-4.41,3.36-7.25,8.7-7.22,14.7l1.2,193.31c.03,3.68,1.13,7.08,3.05,9.94,2.75,6.73,9.37,11.46,17.06,11.46l393-.15c10.19-.03,18.46-8.24,18.46-18.46,0-1.78-.26-3.54-.79-5.14v-171.64c0-3.72-1.09-7.18-3.01-10.11-.86-4.17-3.15-8.02-6.78-10.81l-129.15-99.83c-4.68-3.65-10.51-4.64-15.85-3.29-5.37-.61-10.97,1.18-15.13,5.34l-105.21,105.65c-4.03,4.04-5.79,9.56-5.24,14.86-.28,1.32-.4,2.68-.4,4.03l.47,71.9c.1,9.98,8.06,18.04,17.9,18.29v.04l75.72.36h2.7l3.29-.04v.07l5.31.04v-.45l1.44.24h.01l1.35.21h-2.8s2.94.01,2.94.01c.18,0,.39,0,.59-.01,2.77-.1,5.33-.61,7.47-1.53,1.41-.54,2.64-1.17,3.74-1.91.5-.28,1.03-.64,1.63-1.09.29-.22.6-.47.88-.74,1.77,1.48,3.75,2.66,5.94,3.58,2.64,1.07,5.44,1.63,8.35,1.63h38.42c3.07,0,5.9-.54,8.42-1.59,2.54-1.06,4.84-2.57,6.83-4.5,1.95-1.92,3.57-4.2,4.75-6.73,1.24-2.61,1.87-5.44,1.87-8.39v-39.83c0-2.91-.57-5.69-1.67-8.27-1.1-2.57-2.7-4.85-4.74-6.75-2.01-1.85-4.43-3.39-7.15-4.49-2.77-1.14-5.55-1.71-8.31-1.71h-38.42c-1.53,0-2.9.11-4.14.33-1.32.22-2.7.64-4.09,1.21-2.52,1.03-4.88,2.52-7.08,4.49-1.91,1.77-3.47,4.04-4.7,6.72-1.24,2.73-1.87,5.56-1.87,8.46v38.47c0,.39-.03.71-.11,1.09-.06.39-.21.79-.38,1.21-.33.78-.81,1.49-1.37,2.04-.75.72-1.6,1.06-2.57,1.21h-.04l-16.37.07h-56.91c-.04.22-.04.43-.08.68v-.68h.08c.04-.64.08-1.34.08-2.01l-.47-69.63,91.74-92.1,115.16,89.04v153.53l-357.01.14-1.06-169.31L435.31,42.39l248.35,209.8.57,275.43-662.4-.7c-.88-.13-1.76-.22-2.66-.22h-.06c-10.15,0-18.43,8.24-18.47,18.39l-.64,185.78c0,10.19,8.21,18.5,18.43,18.5h.03c10.16,0,18.43-8.23,18.47-18.39l.61-167.11,660.6.68c2.05,0,4.03-.33,5.87-.96,9.62-.61,17.19-8.62,17.19-18.4l-.6-296.77ZM430.16,301.22c0-1.71.56-3.05,1.8-4.22.56-.53,1.32-1.02,2.27-1.48.86-.32,1.76-.49,2.7-.49h38.42c.95,0,1.83.18,2.69.59.74.29,1.53.77,2.36,1.46,1.24,1.2,1.85,2.51,1.85,4.14v39.83c0,1.74-.6,3.05-1.85,4.15l-.11.1c-.59.6-1.34,1.06-2.13,1.41-.92.32-1.85.47-2.8.47h-38.42c-1.91,0-3.57-.64-5.06-1.98-.53-.46-.95-1.03-1.28-1.74-.31-.75-.43-1.56-.43-2.41v-39.83Z"/>
</svg>